<svg width="197" height="81" viewBox="0 0 197 81" fill="none" xmlns="http://www.w3.org/2000/svg">
<path d="M14.3675 58.2553L25.431 57.4408L27.2362 61.3121L11.1308 61.5877L9.69703 58.513L20.2679 46.3687L22.0731 50.2399L14.3675 58.2553ZM43.0932 64.081C38.8537 64.7778 35.8252 63.2743 34.0076 59.5704L32.4252 56.1771C31.3109 53.7874 29.7288 53.0705 27.679 54.0263L26.3567 51.1906C28.4065 50.2347 28.8718 48.5566 27.7525 46.1563L26.1776 42.7789C25.318 40.8523 25.0912 39.0767 25.4974 37.4521C25.9141 35.8225 26.9333 34.3063 28.555 32.9037L30.3597 34.7774C28.7996 36.229 28.6068 38.2972 29.7812 40.9821L31.3859 44.4233C32.5002 46.813 32.364 48.9194 30.9773 50.7427C33.2703 50.863 34.9789 52.1287 36.1032 54.5396L37.6855 57.9329C38.9874 60.5584 40.6957 61.7401 42.8104 61.4781L43.0932 64.081ZM58.2135 40.8546C59.1338 43.4382 59.1217 45.7971 58.1774 47.9313C57.2281 50.0549 55.4312 51.7333 52.7866 52.9665C50.9386 53.8282 49.1052 54.153 47.2866 53.9408C45.4736 53.713 43.8083 52.9702 42.2908 51.7124C40.7733 50.4546 39.5009 48.7658 38.4736 46.6459L37.4633 44.4792C36.4431 42.2913 35.9318 40.1829 35.9296 38.1539C35.9274 36.1249 36.438 34.3222 37.4614 32.7459C38.4955 31.1647 39.9631 29.9308 41.8642 29.0443C44.4239 27.8507 46.8087 27.5856 49.0187 28.2489C51.2288 28.9122 53.0531 30.4536 54.4916 32.8731L50.477 34.7451C49.5082 33.1668 48.46 32.1945 47.3324 31.8281C46.2104 31.4462 44.8953 31.6069 43.3872 32.3102C41.6347 33.1273 40.5855 34.3989 40.2395 36.1248C39.8992 37.8351 40.2954 39.9325 41.4281 42.4171L42.3864 44.4722C43.5552 46.9787 44.8928 48.6824 46.399 49.5834C47.9159 50.4794 49.5399 50.5238 51.2711 49.7165C52.8536 48.9786 53.8772 48.0681 54.342 46.9851C54.8067 45.902 54.759 44.4826 54.1988 42.7267L58.2135 40.8546ZM60.1586 38.4541C59.3711 36.7654 58.9975 35.0907 59.0376 33.4298C59.0728 31.7583 59.5274 30.2792 60.4014 28.9924C61.2704 27.695 62.4909 26.6798 64.0628 25.9468C66.3887 24.8622 68.6231 24.7319 70.7658 25.5558C72.9192 26.3749 74.6312 27.9945 75.902 30.4146L76.3414 31.3153C77.1338 33.0146 77.5127 34.6869 77.4783 36.3322C77.4544 37.9725 77.0027 39.4439 76.123 40.7463C75.254 42.0437 74.0229 43.0638 72.4298 43.8067C69.9976 44.9409 67.6723 45.0425 65.4538 44.1116C63.2411 43.1651 61.5057 41.343 60.2477 38.6453L60.1586 38.4541ZM64.1859 36.9835C65.0129 38.7572 66.0281 39.9776 67.2315 40.6449C68.4299 41.3015 69.6822 41.3252 70.9886 40.7161C72.2949 40.1069 73.0715 39.1241 73.3183 37.7678C73.5757 36.4064 73.2462 34.7434 72.33 32.7785C71.5178 31.0367 70.4969 29.8318 69.2674 29.1639C68.0485 28.4909 66.7965 28.4541 65.5114 29.0534C64.2475 29.6427 63.4791 30.6152 63.2061 31.9709C62.9282 33.3159 63.2548 34.9868 64.1859 36.9835ZM78.7492 29.824C77.5111 27.1688 77.1341 24.7521 77.6183 22.5738C78.0975 20.385 79.3726 18.8077 81.4437 17.8419C83.2705 16.9901 85.0439 16.9389 86.764 17.6884L82.6484 8.86257L86.5197 7.05736L97.9304 31.5277L94.4255 33.162L93.4023 31.4669C92.8984 33.4086 91.68 34.8302 89.747 35.7316C87.729 36.6726 85.7146 36.6228 83.7036 35.5822C81.7032 34.5367 80.0517 32.6173 78.7492 29.824ZM82.7765 28.3533C83.5937 30.1058 84.5671 31.3198 85.6968 31.9956C86.8322 32.6557 88.0212 32.6961 89.2638 32.1166C90.8463 31.3787 91.6746 30.1326 91.7488 28.3783L88.3166 21.0181C86.9612 19.9692 85.4923 19.8137 83.9098 20.5516C82.6565 21.136 81.9228 22.0859 81.7086 23.4012C81.4894 24.7059 81.8454 26.3566 82.7765 28.3533Z" fill="black"/>
<path d="M114.664 33.6615L105.678 29.4716L101.28 33.9957L97.0903 32.0419L116.669 12.9319L120.285 14.6183L118.247 41.9074L114.041 39.9462L114.664 33.6615ZM108.325 26.7491L115.048 29.884L116.174 18.6941L108.325 26.7491ZM131.383 27.0471L130.566 29.0905C132.558 28.1447 134.59 28.1548 136.661 29.1205C140.251 30.7945 141.12 33.7014 139.267 37.8414L133.955 49.2322L130.084 47.427L135.291 36.2592C135.802 35.1653 135.939 34.2467 135.704 33.5034C135.484 32.7544 134.838 32.1299 133.765 31.6297C132.204 30.9016 130.712 31.0656 129.288 32.1216L123.568 44.3886L119.697 42.5834L127.735 25.3458L131.383 27.0471ZM141.315 42.0163C142.563 39.3399 144.185 37.4973 146.182 36.4886C148.193 35.4742 150.24 35.4524 152.322 36.4231C154.287 37.3393 155.512 38.7449 155.999 40.64L156.984 38.9852L160.473 40.6121L152.68 57.3239C151.626 59.5862 150.087 61.0411 148.066 61.6888C146.054 62.3414 143.854 62.1105 141.464 60.9962C140.2 60.4069 139.087 59.5644 138.124 58.4687C137.166 57.3887 136.572 56.2777 136.342 55.1359L139.259 53.6642C139.789 55.6315 140.926 57.0212 142.668 57.8334C143.953 58.4327 145.13 58.5552 146.201 58.2009C147.266 57.8572 148.113 57.0109 148.742 55.6621L149.285 54.4991C147.59 55.2217 145.813 55.1497 143.955 54.283C141.937 53.342 140.659 51.77 140.122 49.567C139.595 47.369 139.993 44.8521 141.315 42.0163ZM145.015 44.1487C144.207 45.8798 143.922 47.4081 144.157 48.7333C144.408 50.0528 145.16 51.0048 146.413 51.5892C147.975 52.3172 149.444 52.188 150.822 51.2014L154.359 43.6181C154.235 41.97 153.392 40.782 151.831 40.054C150.557 39.4596 149.328 39.5011 148.146 40.1782C146.975 40.8603 145.931 42.1838 145.015 44.1487ZM153.246 62.4752C155.397 62.7415 157.126 61.5304 158.431 58.8419L159.976 55.5282C161.12 53.0748 162.872 51.8421 165.231 51.83C163.724 50.0153 163.55 47.8653 164.709 45.38L166.246 42.0822C167.467 39.3541 167.284 37.2516 165.697 35.7745L167.501 33.9007C169.182 35.3438 170.21 36.8964 170.585 38.5585C170.966 40.2101 170.698 42.0183 169.782 43.9831L168.296 47.1694C167.182 49.559 167.655 51.2343 169.716 52.1951L168.393 55.0308C166.333 54.07 164.745 54.7845 163.631 57.1742L162.168 60.3126C161.241 62.2987 160.018 63.6742 158.498 64.4393C156.983 65.2199 155.138 65.4328 152.963 65.0781L153.246 62.4752ZM182.013 59.3064L173.854 51.099L175.629 47.2914L186.63 59.6364L185.196 62.7111L168.668 62.219L170.444 58.4114L182.013 59.3064Z" fill="black"/>
</svg>
